MSD_FD_states
version=1
nRows=32
nColumns=9
inDegrees=yes

# SIMM Motion File Header:
name MSD_FD_states
datacolumns 9
datarows 32
otherdata 1
range 3.80029185 3.81110465
endheader
time	/jointset/PelvisToPlatform/Block_rotation/value	/jointset/PelvisToPlatform/Block_rotation/speed	/jointset/PelvisToPlatform/Block_tx/value	/jointset/PelvisToPlatform/Block_tx/speed	/jointset/PelvisToPlatform/Block_ty/value	/jointset/PelvisToPlatform/Block_ty/speed	/forceset/muscle1/activation	/forceset/muscle1/normalized_tendon_force
      3.80029185	      7.95762458	    -92.58306029	     -0.19303237	      0.37542577	      0.20000000	     -0.00000000	      0.50000000	      0.19030686
      3.80068352	      7.92118930	    -93.46661534	     -0.19288533	      0.37542256	      0.20000000	     -0.00000000	      0.50000000	      0.19025046
      3.80098540	      7.89287122	    -94.14161253	     -0.19277200	      0.37541718	      0.20000000	     -0.00000000	      0.50000000	      0.19025326
      3.80128729	      7.86435016	    -94.81144071	     -0.19265866	      0.37540928	      0.20000000	     -0.00000000	      0.50000000	      0.19022113
      3.80169032	      7.82595920	    -95.69752140	     -0.19250737	      0.37539478	      0.20000000	     -0.00000000	      0.50000000	      0.19020282
      3.80209335	      7.78721300	    -96.57428148	     -0.19235607	      0.37537576	      0.20000000	     -0.00000000	      0.50000000	      0.19014885
      3.80238861	      7.75860472	    -97.21057016	     -0.19224524	      0.37535896	      0.20000000	     -0.00000000	      0.50000000	      0.19015508
      3.80268386	      7.72980931	    -97.84183303	     -0.19213442	      0.37533972	      0.20000000	     -0.00000000	      0.50000000	      0.19012740
      3.80309935	      7.68897481	    -98.72150510	     -0.19197848	      0.37530854	      0.20000000	     -0.00000000	      0.50000000	      0.19011054
      3.80346050	      7.65318474	    -99.47796220	     -0.19184294	      0.37527751	      0.20000000	     -0.00000000	      0.50000000	      0.19007358
      3.80382164	      7.61712286	   -100.22671612	     -0.19170742	      0.37524283	      0.20000000	     -0.00000000	      0.50000000	      0.19007363
      3.80418279	      7.58079195	   -100.96782652	     -0.19157190	      0.37520449	      0.20000000	     -0.00000000	      0.50000000	      0.19002649
      3.80450170	      7.54848913	   -101.61577993	     -0.19145225	      0.37516760	      0.20000000	     -0.00000000	      0.50000000	      0.19003481
      3.80482061	      7.51598063	   -102.25773285	     -0.19133262	      0.37512786	      0.20000000	     -0.00000000	      0.50000000	      0.19000398
      3.80513952	      7.48326838	   -102.89360029	     -0.19121299	      0.37508525	      0.20000000	     -0.00000000	      0.50000000	      0.18999749
      3.80556769	      7.43903051	   -103.73780405	     -0.19105240	      0.37502354	      0.20000000	     -0.00000000	      0.50000000	      0.18996207
      3.80588994	      7.40549999	   -104.36586224	     -0.19093156	      0.37497370	      0.20000000	     -0.00000000	      0.50000000	      0.18996907
      3.80621219	      7.37176808	   -104.98769985	     -0.19081073	      0.37492092	      0.20000000	     -0.00000000	      0.50000000	      0.18994273
      3.80653443	      7.33783680	   -105.60324243	     -0.19068993	      0.37486522	      0.20000000	     -0.00000000	      0.50000000	      0.18993889
      3.80696846	      7.29182433	   -106.42237544	     -0.19052724	      0.37478555	      0.20000000	     -0.00000000	      0.50000000	      0.18990625
      3.80728222	      7.25834052	   -107.00738145	     -0.19040966	      0.37472464	      0.20000000	     -0.00000000	      0.50000000	      0.18991725
      3.80759599	      7.22467408	   -107.58641113	     -0.19029209	      0.37466093	      0.20000000	     -0.00000000	      0.50000000	      0.18989628
      3.80799191	      7.18193494	   -108.30842597	     -0.19014377	      0.37457657	      0.20000000	     -0.00000000	      0.50000000	      0.18989829
      3.80834657	      7.14340926	   -108.94704234	     -0.19001094	      0.37449722	      0.20000000	     -0.00000000	      0.50000000	      0.18986921
      3.80870123	      7.10465847	   -109.57787028	     -0.18987814	      0.37441429	      0.20000000	     -0.00000000	      0.50000000	      0.18988526
      3.80905588	      7.06568533	   -110.20097394	     -0.18974536	      0.37432779	      0.20000000	     -0.00000000	      0.50000000	      0.18984940
      3.80941054	      7.02649259	   -110.81622594	     -0.18961262	      0.37423771	      0.20000000	     -0.00000000	      0.50000000	      0.18987774
      3.80971550	      6.99261776	   -111.33907188	     -0.18949850	      0.37415738	      0.20000000	     -0.00000000	      0.50000000	      0.18984630
      3.81002047	      6.95858437	   -111.85608823	     -0.18938441	      0.37407440	      0.20000000	     -0.00000000	      0.50000000	      0.18985433
      3.81041162	      6.91470303	   -112.51074192	     -0.18923811	      0.37396407	      0.20000000	     -0.00000000	      0.50000000	      0.18983880
      3.81080277	      6.87056749	   -113.15577538	     -0.18909186	      0.37384938	      0.20000000	     -0.00000000	      0.50000000	      0.18986195
      3.81110465	      6.83633384	   -113.64705219	     -0.18897901	      0.37375787	      0.20000000	     -0.00000000	      0.50000000	      0.18983589
